<svg width="788" height="587" viewBox="0 0 788 587" fill="none" xmlns="http://www.w3.org/2000/svg">
<path d="M787.793 515.847H0V516.241H787.793V515.847Z" fill="#E6E6E6"/>
<path d="M196.664 539.686H144.481V540.079H196.664V539.686Z" fill="#E6E6E6"/>
<path d="M127.969 539.686H97.7334V540.079H127.969V539.686Z" fill="#E6E6E6"/>
<path d="M331.74 545.483H301.504V545.877H331.74V545.483Z" fill="#E6E6E6"/>
<path d="M489.393 554.276H421.343V554.67H489.393V554.276Z" fill="#E6E6E6"/>
<path d="M407.321 554.276H397.347V554.67H407.321V554.276Z" fill="#E6E6E6"/>
<path d="M714.292 545.483H566.691V545.877H714.292V545.483Z" fill="#E6E6E6"/>
<path d="M373.414 445.576H69.184C66.8007 445.572 64.5164 444.622 62.8326 442.935C61.1488 441.249 60.2031 438.963 60.2031 436.579V8.91782C60.2239 6.54818 61.1787 4.28241 62.8603 2.61267C64.5418 0.942923 66.8142 0.00405932 69.184 0H373.414C375.8 0 378.088 0.947854 379.776 2.63504C381.463 4.32223 382.411 6.61055 382.411 8.9966V436.579C382.411 438.965 381.463 441.254 379.776 442.941C378.088 444.628 375.8 445.576 373.414 445.576V445.576ZM69.184 0.315118C66.9051 0.319292 64.721 1.22748 63.1111 2.84035C61.5012 4.45322 60.597 6.63897 60.597 8.91782V436.579C60.597 438.858 61.5012 441.044 63.1111 442.657C64.721 444.27 66.9051 445.178 69.184 445.182H373.414C375.694 445.178 377.88 444.27 379.492 442.658C381.105 441.045 382.013 438.86 382.017 436.579V8.91782C382.013 6.63752 381.105 4.45181 379.492 2.83939C377.88 1.22697 375.694 0.319283 373.414 0.315118H69.184Z" fill="#E6E6E6"/>
<path d="M714.229 445.576H409.983C407.599 445.572 405.313 444.622 403.626 442.936C401.94 441.25 400.991 438.964 400.987 436.579V8.91782C401.012 6.54674 401.97 4.28099 403.654 2.61168C405.338 0.942372 407.612 0.00401505 409.983 0H714.229C716.596 0.00820013 718.865 0.948896 720.543 2.6182C722.221 4.2875 723.174 6.5509 723.194 8.91782V436.579C723.194 438.96 722.251 441.243 720.57 442.93C718.89 444.616 716.61 445.567 714.229 445.576V445.576ZM409.983 0.315118C407.703 0.319283 405.517 1.22697 403.905 2.83939C402.293 4.45181 401.385 6.63752 401.381 8.91782V436.579C401.385 438.86 402.293 441.045 403.905 442.658C405.517 444.27 407.703 445.178 409.983 445.182H714.229C716.509 445.178 718.695 444.27 720.308 442.658C721.92 441.045 722.828 438.86 722.832 436.579V8.91782C722.828 6.63752 721.92 4.45181 720.308 2.83939C718.695 1.22697 716.509 0.319283 714.229 0.315118H409.983Z" fill="#E6E6E6"/>
<path d="M421.312 381.261H386.665V518.699H421.312V381.261Z" fill="#E0E0E0"/>
<path d="M414.726 518.699H421.312V499.981H407.825L414.726 518.699Z" fill="#FAFAFA"/>
<path d="M269.488 381.261H234.841V518.699H269.488V381.261Z" fill="#E0E0E0"/>
<path d="M421.312 381.261H263.753V507.213H421.312V381.261Z" fill="#FAFAFA"/>
<path d="M415.592 387.453V420.777H269.425V387.453H415.545H415.592ZM416.159 386.838H268.858V421.375H416.207V386.838H416.159Z" fill="#E0E0E0"/>
<path d="M270.323 518.699H263.753V499.981H277.224L270.323 518.699Z" fill="#FAFAFA"/>
<path d="M339.05 404.106C339.05 404.795 339.255 405.468 339.637 406.041C340.02 406.613 340.564 407.06 341.2 407.323C341.836 407.587 342.536 407.656 343.212 407.521C343.887 407.387 344.508 407.055 344.995 406.568C345.481 406.081 345.813 405.461 345.947 404.785C346.082 404.11 346.013 403.41 345.749 402.774C345.486 402.137 345.039 401.593 344.467 401.211C343.894 400.828 343.221 400.624 342.532 400.624C341.609 400.624 340.723 400.991 340.07 401.644C339.417 402.297 339.05 403.183 339.05 404.106V404.106Z" fill="#E6E6E6"/>
<path d="M415.592 427.567V460.891H269.425V427.567H415.545H415.592ZM416.159 426.968H268.858V461.505H416.207V426.984L416.159 426.968Z" fill="#E0E0E0"/>
<path d="M339.05 444.316C339.05 445.004 339.255 445.677 339.637 446.25C340.02 446.823 340.564 447.269 341.2 447.533C341.836 447.796 342.536 447.865 343.212 447.731C343.887 447.596 344.508 447.265 344.995 446.778C345.481 446.291 345.813 445.67 345.947 444.995C346.082 444.319 346.013 443.619 345.749 442.983C345.486 442.347 345.039 441.803 344.467 441.42C343.894 441.038 343.221 440.833 342.532 440.833C341.609 440.833 340.723 441.2 340.07 441.853C339.417 442.506 339.05 443.392 339.05 444.316Z" fill="#E6E6E6"/>
<path d="M415.592 467.697V501.036H269.425V467.697H415.545H415.592ZM416.159 467.083H268.858V501.635H416.207V467.083H416.159Z" fill="#E0E0E0"/>
<path d="M339.05 484.367C339.053 485.055 339.26 485.727 339.645 486.298C340.029 486.868 340.574 487.312 341.211 487.573C341.847 487.834 342.547 487.901 343.221 487.765C343.896 487.629 344.515 487.296 345 486.808C345.485 486.321 345.816 485.7 345.949 485.025C346.082 484.35 346.012 483.651 345.748 483.016C345.484 482.38 345.038 481.837 344.465 481.455C343.893 481.073 343.22 480.87 342.532 480.87C342.074 480.87 341.62 480.96 341.196 481.136C340.773 481.312 340.388 481.57 340.065 481.895C339.741 482.22 339.485 482.606 339.311 483.03C339.137 483.454 339.048 483.909 339.05 484.367V484.367Z" fill="#E6E6E6"/>
<path d="M248.328 301.441H213.681V518.715H248.328V301.441Z" fill="#E0E0E0"/>
<path d="M241.742 518.699H248.328V499.981H234.857L241.742 518.699Z" fill="#FAFAFA"/>
<path d="M118.847 301.441H84.1997V518.715H118.847V301.441Z" fill="#E0E0E0"/>
<path d="M248.328 301.441H113.096V507.229H248.328V301.441Z" fill="#FAFAFA"/>
<path d="M242.498 307.239V353.829H118.925V307.239H242.498V307.239ZM243.223 306.53H118.169V354.507H243.192V306.546L243.223 306.53Z" fill="#E0E0E0"/>
<path d="M242.499 359.518V483.091H183.635V359.518H242.499ZM243.223 358.793H182.926V483.816H243.223V358.793Z" fill="#E0E0E0"/>
<path d="M177.789 359.518V483.091H118.925V359.518H177.789ZM178.498 358.793H118.169V483.816H178.467V358.793H178.498Z" fill="#E0E0E0"/>
<path d="M119.682 518.699H113.096V499.981H126.583L119.682 518.699Z" fill="#FAFAFA"/>
<path d="M177.222 330.558C177.219 331.251 177.422 331.928 177.804 332.506C178.186 333.083 178.732 333.534 179.37 333.801C180.009 334.068 180.713 334.14 181.393 334.006C182.072 333.873 182.697 333.541 183.188 333.053C183.678 332.564 184.013 331.941 184.149 331.262C184.286 330.583 184.217 329.879 183.953 329.239C183.689 328.599 183.24 328.052 182.665 327.667C182.089 327.282 181.412 327.076 180.72 327.076C179.795 327.076 178.908 327.443 178.252 328.095C177.597 328.748 177.226 329.633 177.222 330.558Z" fill="#E6E6E6"/>
<path d="M189.7 418.366C189.7 419.058 189.906 419.735 190.291 420.311C190.676 420.886 191.223 421.335 191.863 421.599C192.503 421.863 193.207 421.932 193.886 421.795C194.565 421.659 195.188 421.324 195.677 420.834C196.165 420.343 196.497 419.718 196.631 419.039C196.764 418.359 196.692 417.655 196.425 417.017C196.158 416.378 195.707 415.832 195.13 415.45C194.553 415.068 193.875 414.865 193.182 414.868C192.724 414.868 192.27 414.959 191.846 415.135C191.423 415.311 191.038 415.569 190.715 415.894C190.391 416.219 190.135 416.604 189.961 417.029C189.787 417.453 189.698 417.907 189.7 418.366V418.366Z" fill="#E6E6E6"/>
<path d="M164.759 418.366C164.762 419.054 164.969 419.726 165.354 420.296C165.738 420.867 166.283 421.311 166.92 421.572C167.556 421.833 168.256 421.9 168.93 421.763C169.605 421.627 170.224 421.294 170.709 420.807C171.194 420.319 171.525 419.699 171.658 419.024C171.791 418.349 171.721 417.649 171.457 417.014C171.193 416.379 170.747 415.836 170.174 415.454C169.602 415.072 168.929 414.868 168.241 414.868C167.783 414.868 167.329 414.959 166.905 415.135C166.482 415.311 166.097 415.569 165.774 415.894C165.45 416.219 165.194 416.604 165.02 417.029C164.846 417.453 164.757 417.907 164.759 418.366V418.366Z" fill="#E6E6E6"/>
<path d="M160.82 240.86H146.214C147.56 247.945 148.408 255.116 148.751 262.32C148.751 270.198 137.628 301.441 153.478 301.441C169.328 301.441 158.205 270.276 158.205 262.32C158.574 255.114 159.448 247.943 160.82 240.86V240.86Z" fill="#E0E0E0"/>
<path d="M105.249 272.812V282.266C105.266 287.334 107.286 292.189 110.87 295.773C114.453 299.356 119.309 301.377 124.377 301.394H133.83C138.898 301.377 143.754 299.356 147.337 295.773C150.921 292.189 152.941 287.334 152.958 282.266V272.812H105.249Z" fill="#F5F5F5"/>
<path d="M308.295 361.219C308.295 372.248 320.632 381.261 335.71 381.261H349.323C364.402 381.261 376.738 372.248 376.738 361.219H308.295Z" fill="#E0E0E0"/>
<path d="M669.01 345.053C660.754 351.797 649.346 364.134 638.916 381.497C631.952 393.061 627.761 405.13 625.917 421.17C625.917 403.051 626.028 383.592 626.091 365.221C628.186 360.494 632.976 349.591 636.411 340.988C647.865 312.265 652.167 305.191 662.455 280.423C676.21 247.335 690.296 208.166 686.262 211.302C678.038 217.683 646.526 276.689 643.123 285.134C633.846 307.671 628.112 331.508 626.122 355.799C626.122 338.467 626.248 322.711 626.311 310.485C626.532 270.607 627.209 257.734 627.54 253.764C628.816 251.747 630.313 249.399 631.196 248.139C638.601 237.425 641.453 228.318 648.417 212.342C658.311 189.732 666.82 149.57 664.33 151.587C653.963 160.032 645.801 178.151 635.056 201.265C624.31 224.379 627.383 237.661 625.256 257.388C624.814 261.264 624.468 275.885 624.216 296.131C621.443 274.546 616.212 260.334 606.679 247.414C594.957 231.517 583.613 220.787 575.294 215.178C566.975 209.569 589.663 248.612 600.503 265.597C610.161 280.785 619.064 294.162 624.137 307.35C623.869 334.812 623.743 369.569 623.743 401.885C621.254 387.169 617.189 371.303 611.769 359.029C605.246 344.281 595.225 321.656 587.237 313.983C585.33 312.139 595.587 356.145 602.173 367.836C608.759 379.527 613.596 390.572 617.74 397.205C618.701 398.781 621.915 404.721 623.743 408.156C623.743 447.655 623.964 482.507 624.31 494.372H626.012C625.902 491.315 625.87 471.211 625.917 444.615C630.03 430.182 639.42 413.702 647.172 398.671C655.617 382.395 677.266 338.357 669.01 345.053Z" fill="#E0E0E0"/>
<path d="M649.835 518.699H600.456L596.722 470.297H653.569L649.835 518.699Z" fill="#F0F0F0"/>
<path d="M657.24 475.937H593.035L591.207 459.599H659.083L657.24 475.937Z" fill="#F5F5F5"/>
<path d="M195.782 32.2996H107.471V129.277H195.782V32.2996Z" fill="#E0E0E0"/>
<path d="M205.346 32.2996H114.12V129.277H205.346V32.2996Z" fill="#F5F5F5"/>
<path d="M197.704 121.635V39.9412L121.761 39.9412V121.635H197.704Z" fill="white"/>
<path d="M179.286 101.815V59.7307H140.164V101.815H179.286Z" fill="#F5F5F5"/>
<path d="M646.069 43.5964H564.028V133.688H646.069V43.5964Z" fill="#E0E0E0"/>
<path d="M654.956 43.5964H570.221V133.688H654.956V43.5964Z" fill="#F5F5F5"/>
<path d="M647.865 126.583V50.7024L577.326 50.7024V126.583H647.865Z" fill="white"/>
<path d="M612.588 110.653C624.744 110.653 634.599 100.799 634.599 88.6425C634.599 76.4862 624.744 66.6316 612.588 66.6316C600.432 66.6316 590.577 76.4862 590.577 88.6425C590.577 100.799 600.432 110.653 612.588 110.653Z" fill="#F5F5F5"/>
<path d="M287.529 90.1235H222.016V162.065H287.529V90.1235Z" fill="#E0E0E0"/>
<path d="M294.619 90.1235H226.947V162.065H294.619V90.1235Z" fill="#F5F5F5"/>
<path d="M288.947 156.393V95.7959H232.62V156.393H288.947Z" fill="white"/>
<path d="M260.791 110.764L245.382 137.454H276.2L260.791 110.764Z" fill="#F5F5F5"/>
<path d="M393.897 587C562.615 587 699.388 579.015 699.388 569.164C699.388 559.314 562.615 551.329 393.897 551.329C225.179 551.329 88.4067 559.314 88.4067 569.164C88.4067 579.015 225.179 587 393.897 587Z" fill="#F5F5F5"/>
<path d="M550.274 170.841L534.644 164.539C534.644 164.539 514.02 202.148 508.111 204.054C500.076 206.638 483.437 213.823 473.574 215.083C472.235 216.659 470.045 221.559 470.25 223.339C483.5 227.767 512.617 221.89 518.857 217.258C533.053 206.749 550.274 170.841 550.274 170.841Z" fill="#E58A7B"/>
<path d="M555.08 162.286C557.994 173.047 542.207 194.696 542.207 194.696L521.52 183.099C521.52 183.099 525.395 174.197 530.122 165.137C537.701 150.5 551.755 150.012 555.08 162.286Z" fill="url(#paint0_linear_28_376)"/>
<path opacity="0.2" d="M555.08 162.286C557.994 173.047 542.207 194.696 542.207 194.696L521.52 183.099C521.52 183.099 525.395 174.197 530.122 165.137C537.701 150.5 551.755 150.012 555.08 162.286Z" fill="black"/>
<path opacity="0.2" d="M529.728 187.732L537.874 192.301L539.308 167.296C534.565 170.936 531.225 181.902 529.728 187.732Z" fill="black"/>
<path d="M541.466 154.187C541.466 154.187 525.364 190.016 534.754 256.726H598.203C599.211 246.989 595.871 199.469 607.956 153.588C600.996 152.228 593.953 151.328 586.875 150.894C577.896 150.374 568.895 150.374 559.916 150.894C553.692 151.526 547.525 152.627 541.466 154.187V154.187Z" fill="url(#paint1_linear_28_376)"/>
<path opacity="0.2" d="M541.466 154.187C541.466 154.187 525.364 190.016 534.754 256.726H598.203C599.211 246.989 595.871 199.469 607.956 153.588C600.996 152.228 593.953 151.328 586.875 150.894C577.896 150.374 568.895 150.374 559.916 150.894C553.692 151.526 547.525 152.627 541.466 154.187V154.187Z" fill="black"/>
<g style="mix-blend-mode:multiply">
<path d="M526.75 570.583C526.656 572.285 550.715 573.655 580.478 573.655C610.241 573.655 634.473 572.285 634.568 570.583C634.662 568.881 610.619 567.526 580.84 567.526C551.062 567.526 526.861 568.897 526.75 570.583Z" fill="#E8ECF1"/>
</g>
<path d="M569.103 525.872L557.849 530.229L567.543 555.27L578.796 550.914L569.103 525.872Z" fill="#E58A7B"/>
<path d="M619.285 558.467H607.42L603.072 531.004H614.936L619.285 558.467Z" fill="#E58A7B"/>
<path d="M606.601 557.096H619.93C620.162 557.097 620.385 557.18 620.561 557.33C620.737 557.48 620.854 557.687 620.891 557.916L622.609 568.456C622.645 568.721 622.624 568.99 622.547 569.245C622.47 569.501 622.339 569.737 622.162 569.937C621.986 570.137 621.768 570.297 621.525 570.406C621.281 570.515 621.017 570.57 620.75 570.567C616.102 570.489 613.864 570.205 608.003 570.205C604.395 570.205 596.974 570.583 591.964 570.583C586.953 570.583 586.622 565.667 588.686 565.211C597.951 563.21 601.543 560.484 604.631 557.837C605.176 557.358 605.876 557.095 606.601 557.096V557.096Z" fill="#263238"/>
<path d="M567.211 553.031L579.816 549.344C580.041 549.281 580.281 549.296 580.496 549.388C580.711 549.48 580.888 549.642 580.998 549.848L585.724 559.302C585.834 559.542 585.89 559.803 585.889 560.066C585.887 560.33 585.828 560.59 585.716 560.829C585.603 561.068 585.44 561.279 585.237 561.448C585.035 561.616 584.798 561.739 584.543 561.807C579.958 563.067 576.885 563.839 571.15 565.51C567.196 566.66 563.162 568.535 559.255 569.779C556.545 570.646 550.179 570.678 546.886 570.678C542.018 570.678 540.931 565.541 543.026 565.305C548.304 564.722 549.013 564.99 551.928 563.524C556.698 561.44 561.02 558.454 564.659 554.733C565.345 553.951 566.226 553.364 567.211 553.031V553.031Z" fill="#263238"/>
<path d="M475.56 215.021L462.514 209.553L457.141 224.017C462.488 224.832 467.928 224.832 473.275 224.017L475.56 215.021Z" fill="#E58A7B"/>
<path d="M452.808 209.175L452.461 218.786L457.141 223.986L462.514 209.522L452.808 209.175Z" fill="#E58A7B"/>
<path d="M570.647 527.999L559.358 532.357L564.358 545.307L575.646 540.949L570.647 527.999Z" fill="#CF6F64"/>
<path d="M614.936 531.004H603.072L605.325 545.169H617.189L614.936 531.004Z" fill="#CF6F64"/>
<path opacity="0.2" d="M532.738 238.686C532.974 241.538 533.242 244.452 533.589 247.446L580.762 232.131C588.128 229.948 594.531 225.318 598.912 219.007C599.101 214.8 599.338 210.372 599.7 205.756C599.858 203.519 600.047 201.218 600.252 198.886C600.457 196.555 600.74 193.971 601.039 191.481L532.738 238.686Z" fill="black"/>
<path d="M548.147 187.006L546.571 186.817C547.501 178.939 553.378 172.732 559.57 172.889V174.465C554.15 174.354 548.982 179.948 548.147 187.006Z" fill="white"/>
<path d="M556.545 201.549H556.277V199.974C561.697 200.178 566.786 194.522 567.621 187.479L569.197 187.668C568.362 195.373 562.674 201.549 556.545 201.549Z" fill="white"/>
<path d="M585.992 120.533C583.771 129.214 581.155 145.112 586.875 150.894C586.875 150.894 582.873 159.702 566.755 159.702C552.023 159.702 559.917 150.894 559.917 150.894C569.717 148.594 569.89 141.441 568.598 134.666L585.992 120.533Z" fill="#E58A7B"/>
<path d="M578.902 126.299L568.613 134.666C568.932 136.223 569.117 137.804 569.165 139.392C572.174 142.386 578.209 134.807 578.823 130.932C579.135 129.406 579.162 127.835 578.902 126.299Z" fill="#CF6F64"/>
<path d="M550.92 120.422C551.636 121.663 552.6 122.743 553.752 123.594C554.904 124.446 556.219 125.05 557.616 125.37C561.397 126.205 563.288 122.723 562.248 119.225C561.319 116.074 558.215 111.835 554.37 112.56C553.547 112.73 552.776 113.094 552.122 113.623C551.468 114.152 550.951 114.83 550.613 115.6C550.275 116.369 550.127 117.209 550.18 118.048C550.233 118.887 550.487 119.701 550.92 120.422V120.422Z" fill="#CF6F64"/>
<path d="M557.175 92.6448C551.282 95.3391 549.203 118.752 556.608 122.219C564.013 125.685 568.33 87.5242 557.175 92.6448Z" fill="#263238"/>
<path d="M587.788 107.471C586.37 119.225 586.213 126.142 579.91 132.16C577.958 134.158 575.491 135.576 572.782 136.26C570.074 136.944 567.229 136.865 564.562 136.034C561.895 135.203 559.51 133.651 557.67 131.549C555.83 129.447 554.606 126.878 554.134 124.125C552.227 113.568 554.859 96.1267 566.644 91.4472C569.12 90.355 571.844 89.945 574.532 90.2597C577.22 90.5743 579.775 91.6023 581.932 93.2369C584.089 94.8715 585.769 97.0533 586.799 99.5561C587.829 102.059 588.17 104.792 587.788 107.471V107.471Z" fill="#E58A7B"/>
<path d="M568.425 98.7264C577.154 96.5048 583.566 94.9923 581.266 102.256C578.225 111.961 574.57 121.352 579.47 121.777C582.463 122.045 595.698 116.436 594.012 110.748C592.547 105.801 598.739 104.446 599.842 101.941C603.923 92.8652 592.248 94.0627 594.327 88.5481C596.407 83.0336 584.874 74.1473 578.572 78.5747C568.315 85.7278 550.715 85.6175 559.964 73.8479C566.597 65.45 554.765 67.1674 554.765 67.1674C554.765 67.1674 561.918 71.4058 549.88 77.9602C537.149 84.9558 548.825 103.753 568.425 98.7264Z" fill="#263238"/>
<path d="M592.42 120.422C590.697 122.916 588.108 124.679 585.157 125.37C581.265 126.205 579.768 122.723 581.234 119.225C582.541 116.074 586.134 111.835 589.852 112.56C593.571 113.285 594.421 117.334 592.42 120.422Z" fill="#E58A7B"/>
<path d="M534.754 256.726C534.754 256.726 524.103 352.049 523.268 388.225C522.417 425.85 559.365 543.246 559.365 543.246L578.272 535.369C578.272 535.369 556.213 428.103 559.365 391.155C562.705 350.867 576.507 256.789 576.507 256.789L534.754 256.726Z" fill="url(#paint2_linear_28_376)"/>
<path opacity="0.2" d="M561.224 282.896C552.731 300.512 558.451 335.348 563.051 355.988C564.8 341.414 566.88 325.595 568.85 310.958C568.661 288.458 566.912 271.08 561.224 282.896Z" fill="black"/>
<path d="M577.437 529.129C577.531 529.129 579.674 535.148 579.674 535.148L557.868 544.318L554.433 537.921L577.437 529.129Z" fill="url(#paint3_linear_28_376)"/>
<path d="M557.27 256.726C557.27 256.726 565.415 347.385 570.804 381.339C576.728 418.539 599.952 542.427 599.952 542.427H621.68C621.68 542.427 608.665 421.548 606.207 384.711C603.529 344.754 598.203 256.726 598.203 256.726H557.27Z" fill="url(#paint4_linear_28_376)"/>
<path d="M622.01 536.771C622.105 536.771 622.735 542.837 622.735 542.837H598.849L597.147 535.873L622.01 536.771Z" fill="url(#paint5_linear_28_376)"/>
<path opacity="0.2" d="M613.691 529.587C613.642 529.587 613.594 529.57 613.557 529.538C613.519 529.507 613.494 529.462 613.486 529.414C613.36 528.311 601.622 419.122 599.416 386.035C597.022 350.143 592.2 270.529 592.153 269.725C592.151 269.699 592.154 269.673 592.163 269.648C592.171 269.623 592.185 269.601 592.203 269.581C592.22 269.562 592.242 269.547 592.266 269.536C592.29 269.526 592.316 269.52 592.342 269.521V269.521C592.394 269.52 592.444 269.54 592.482 269.575C592.52 269.61 592.543 269.658 592.547 269.71C592.547 270.513 597.415 350.065 599.81 386.019C602.016 419.107 613.754 528.216 613.865 529.398C613.869 529.424 613.868 529.451 613.862 529.476C613.855 529.502 613.843 529.526 613.827 529.547C613.811 529.567 613.79 529.584 613.767 529.597C613.743 529.609 613.718 529.617 613.691 529.618V529.587Z" fill="black"/>
<path d="M569.764 110.748C569.764 111.709 569.165 112.481 568.535 112.481C567.905 112.481 567.448 111.709 567.511 110.748C567.574 109.787 568.109 109.015 568.74 109.015C569.37 109.015 569.827 109.803 569.764 110.748Z" fill="#263238"/>
<path d="M558.955 110.748C558.955 111.709 558.341 112.481 557.726 112.481C557.112 112.481 556.639 111.709 556.686 110.748C556.734 109.787 557.301 109.015 557.931 109.015C558.561 109.015 559.018 109.803 558.955 110.748Z" fill="#263238"/>
<path d="M562.358 111.237C561.043 114.171 559.348 116.921 557.316 119.414C558.892 120.989 561.838 120.265 561.838 120.265L562.358 111.237Z" fill="#DF5753"/>
<path d="M562.642 124.282C562.605 124.282 562.569 124.275 562.536 124.261C562.502 124.246 562.472 124.225 562.447 124.198C562.422 124.172 562.402 124.14 562.39 124.106C562.377 124.072 562.372 124.035 562.374 123.999C562.378 123.922 562.411 123.85 562.467 123.797C562.523 123.744 562.597 123.715 562.673 123.715C563.878 123.724 565.07 123.462 566.161 122.949C567.251 122.437 568.213 121.686 568.976 120.753C569.03 120.705 569.1 120.679 569.173 120.679C569.245 120.679 569.315 120.705 569.37 120.753C569.421 120.806 569.449 120.877 569.449 120.95C569.449 121.024 569.421 121.094 569.37 121.147C568.553 122.139 567.525 122.935 566.361 123.478C565.197 124.02 563.926 124.295 562.642 124.282V124.282Z" fill="#263238"/>
<path d="M571.686 107.849C571.61 107.888 571.527 107.908 571.442 107.908C571.357 107.908 571.273 107.888 571.198 107.849C570.608 107.468 569.937 107.231 569.239 107.157C568.542 107.083 567.836 107.174 567.18 107.424C567.116 107.456 567.046 107.474 566.975 107.479C566.903 107.484 566.832 107.474 566.764 107.45C566.697 107.427 566.635 107.39 566.581 107.342C566.528 107.294 566.485 107.236 566.455 107.171C566.397 107.031 566.395 106.874 566.451 106.732C566.507 106.591 566.616 106.477 566.754 106.415C567.578 106.079 568.471 105.946 569.357 106.028C570.243 106.111 571.096 106.405 571.844 106.888C571.904 106.929 571.956 106.982 571.995 107.043C572.035 107.104 572.063 107.172 572.076 107.244C572.089 107.316 572.088 107.39 572.072 107.461C572.057 107.532 572.027 107.6 571.985 107.66C571.906 107.75 571.802 107.816 571.686 107.849V107.849Z" fill="#263238"/>
<path d="M554.78 104.698C554.696 104.678 554.62 104.634 554.56 104.572C554.507 104.52 554.465 104.459 554.437 104.392C554.409 104.324 554.394 104.251 554.394 104.178C554.394 104.105 554.409 104.032 554.437 103.964C554.465 103.897 554.507 103.835 554.56 103.784C555.163 103.107 555.916 102.578 556.757 102.239C557.599 101.9 558.508 101.76 559.412 101.83C559.485 101.841 559.554 101.867 559.616 101.907C559.678 101.946 559.732 101.997 559.773 102.058C559.814 102.118 559.843 102.187 559.857 102.259C559.871 102.331 559.869 102.405 559.853 102.476C559.82 102.622 559.734 102.751 559.612 102.838C559.49 102.925 559.341 102.964 559.192 102.949V102.949C558.476 102.904 557.759 103.022 557.096 103.295C556.432 103.568 555.84 103.989 555.363 104.525C555.291 104.604 555.199 104.663 555.096 104.693C554.993 104.724 554.884 104.725 554.78 104.698V104.698Z" fill="#263238"/>
<path d="M614.053 169.092L597.667 164.728C597.667 164.728 581.596 204.291 575.908 206.859C568.188 210.388 548.635 222.615 540.316 228.397C539.859 230.367 540.221 235.582 541.261 237.016C555.442 234.432 582.589 223.986 588.261 218.676C601.197 206.56 614.053 169.092 614.053 169.092Z" fill="#E58A7B"/>
<path d="M602.614 559.176C601.815 559.239 601.018 559.022 600.361 558.561C600.158 558.378 600.007 558.145 599.921 557.886C599.835 557.626 599.819 557.348 599.873 557.08C599.883 556.913 599.938 556.751 600.032 556.613C600.127 556.474 600.257 556.363 600.409 556.293C601.732 555.615 605.435 557.963 605.86 558.231C605.907 558.259 605.943 558.303 605.963 558.354C605.983 558.405 605.985 558.461 605.97 558.514C605.957 558.569 605.93 558.62 605.891 558.661C605.852 558.703 605.804 558.733 605.75 558.751C604.723 559.003 603.672 559.146 602.614 559.176ZM601.039 556.718C600.92 556.692 600.796 556.692 600.676 556.718C600.616 556.749 600.566 556.796 600.532 556.855C600.499 556.914 600.483 556.981 600.487 557.049C600.445 557.232 600.452 557.423 600.508 557.603C600.563 557.783 600.665 557.945 600.803 558.073C601.417 558.625 602.961 558.688 604.994 558.294C603.783 557.497 602.42 556.96 600.992 556.718H601.039Z" fill="url(#paint6_linear_28_376)"/>
<path d="M605.672 558.75C605.631 558.763 605.586 558.763 605.546 558.75C604.364 558.088 602.142 555.489 602.473 554.165C602.523 553.955 602.641 553.768 602.81 553.634C602.978 553.5 603.187 553.426 603.403 553.425C603.614 553.396 603.829 553.414 604.033 553.477C604.237 553.539 604.425 553.645 604.584 553.787C605.892 554.906 605.971 558.341 605.971 558.514C605.979 558.566 605.969 558.618 605.943 558.664C605.917 558.71 605.877 558.746 605.829 558.766C605.776 558.777 605.721 558.771 605.672 558.75ZM603.56 553.945H603.45C603.088 553.945 603.04 554.149 603.025 554.228C602.836 555 604.238 556.97 605.404 557.899C605.398 556.568 604.986 555.271 604.222 554.181C604.039 554.021 603.803 553.937 603.56 553.945V553.945Z" fill="url(#paint7_linear_28_376)"/>
<path d="M560.783 557.207C559.819 557.543 558.77 557.543 557.805 557.207C557.586 557.088 557.401 556.916 557.266 556.707C557.131 556.498 557.051 556.258 557.033 556.009C557.013 555.853 557.033 555.695 557.091 555.549C557.149 555.403 557.243 555.274 557.364 555.174C558.625 554.04 563.777 555.174 564.36 555.395C564.415 555.409 564.464 555.442 564.499 555.488C564.533 555.533 564.551 555.59 564.549 555.647C564.551 555.706 564.536 555.764 564.505 555.815C564.474 555.865 564.429 555.906 564.376 555.93C563.215 556.454 562.014 556.881 560.783 557.207V557.207ZM558.215 555.332C558.035 555.368 557.867 555.449 557.727 555.568C557.676 555.606 557.638 555.657 557.616 555.715C557.593 555.774 557.588 555.837 557.601 555.899C557.611 556.064 557.662 556.224 557.75 556.365C557.839 556.505 557.96 556.621 558.105 556.702C558.94 557.144 560.878 556.797 563.383 555.741C561.696 555.316 559.948 555.177 558.215 555.332V555.332Z" fill="url(#paint8_linear_28_376)"/>
<path d="M564.328 555.931H564.202C562.626 555.647 559.475 553.835 559.38 552.48C559.38 552.165 559.522 551.724 560.278 551.472C560.534 551.381 560.805 551.342 561.076 551.359C561.347 551.375 561.611 551.446 561.854 551.566C563.556 552.401 564.454 555.427 564.501 555.568C564.512 555.616 564.511 555.666 564.497 555.713C564.483 555.76 564.457 555.802 564.422 555.836C564.399 555.875 564.366 555.907 564.328 555.931V555.931ZM560.594 551.945H560.436C559.948 552.118 559.948 552.323 559.948 552.386C559.948 553.205 562.232 554.702 563.824 555.206C563.457 553.941 562.681 552.832 561.618 552.055C561.301 551.894 560.937 551.855 560.594 551.945Z" fill="url(#paint9_linear_28_376)"/>
<path d="M541.655 227.468L525.222 235.03L523.315 239.757L529.381 243.838C529.381 243.838 540.726 242.609 543.956 235.314L541.655 227.468Z" fill="#E58A7B"/>
<path d="M542.349 237.283C541.981 234.126 540.939 231.084 539.292 228.366L541.892 226.412C543.847 229.545 545.095 233.067 545.547 236.732L542.349 237.283Z" fill="#263238"/>
<path d="M545.153 229.705C545.501 230.251 545.671 230.891 545.642 231.538C545.613 232.185 545.385 232.807 544.989 233.32C544.594 233.833 544.05 234.211 543.432 234.404C542.814 234.597 542.151 234.594 541.534 234.397C540.918 234.2 540.377 233.818 539.985 233.302C539.593 232.787 539.37 232.163 539.345 231.516C539.32 230.869 539.496 230.23 539.847 229.686C540.198 229.142 540.709 228.719 541.309 228.476C541.982 228.133 542.764 228.069 543.484 228.3C544.204 228.53 544.804 229.035 545.153 229.705V229.705Z" fill="#263238"/>
<path d="M514.114 241.144L516.304 243.35L531.051 237.047L525.222 235.031L514.114 241.144Z" fill="#E58A7B"/>
<path opacity="0.2" d="M577.437 529.129C577.531 529.129 579.674 535.148 579.674 535.148L557.868 544.318L554.433 537.921L577.437 529.129Z" fill="black"/>
<path opacity="0.2" d="M622.01 536.771C622.105 536.771 622.735 542.837 622.735 542.837H598.849L597.147 535.873L622.01 536.771Z" fill="black"/>
<path d="M618.323 164.554C622.656 178.53 605.718 197.642 605.718 197.642L582.321 188.094C585.094 180.016 588.292 172.09 591.9 164.35C599.085 148.862 613.943 150.453 618.323 164.554Z" fill="url(#paint10_linear_28_376)"/>
<path opacity="0.2" d="M618.323 164.554C622.656 178.53 605.718 197.642 605.718 197.642L582.321 188.094C585.094 180.016 588.292 172.09 591.9 164.35C599.085 148.862 613.943 150.453 618.323 164.554Z" fill="black"/>
<path d="M385.83 24.5317H375.762V26.1546H385.83V24.5317Z" fill="url(#paint11_linear_28_376)"/>
<path d="M516.159 88.7628L514.941 115.804L516.562 115.877L517.781 88.8359L516.159 88.7628Z" fill="url(#paint12_linear_28_376)"/>
<path d="M513.027 31.811H327.108L309.808 418.964H495.727L513.027 31.811Z" fill="url(#paint13_linear_28_376)"/>
<path opacity="0.56" d="M507.481 37.1365H321.562L304.262 424.29H490.181L507.481 37.1365Z" fill="#FAFAFA"/>
<path opacity="0.07" d="M501.935 42.446H316.016L298.7 429.599H484.619L501.935 42.446Z" fill="url(#paint14_linear_28_376)"/>
<path d="M480.775 211.302H322.082L320.758 240.923H479.451L480.775 211.302Z" fill="white"/>
<path d="M409.354 189.685H323.043L322.46 202.935H408.771L409.354 189.685Z" fill="url(#paint15_linear_28_376)"/>
<path d="M477.199 291.247H318.506L317.182 320.868H475.875L477.199 291.247Z" fill="white"/>
<path opacity="0.47" d="M448.097 360.872H341.383L339.792 396.37H446.506L448.097 360.872Z" fill="url(#paint16_linear_28_376)"/>
<path d="M440.96 401.885H334.246C334.199 401.897 334.15 401.897 334.104 401.885C334.088 401.839 334.088 401.789 334.104 401.743L335.68 366.229C335.679 366.205 335.684 366.181 335.694 366.159C335.704 366.137 335.718 366.117 335.736 366.101C335.754 366.084 335.775 366.072 335.797 366.064C335.82 366.056 335.845 366.054 335.869 366.056H442.583C442.603 366.046 442.624 366.041 442.646 366.041C442.668 366.041 442.69 366.046 442.709 366.056C442.72 366.075 442.726 366.097 442.726 366.119C442.726 366.141 442.72 366.163 442.709 366.182L441.165 401.774C441.146 401.811 441.116 401.842 441.08 401.861C441.043 401.881 441.002 401.889 440.96 401.885V401.885ZM334.435 401.506H440.771L442.347 366.371H336.01L334.435 401.506Z" fill="white"/>
<path d="M390.715 269.63H319.467L318.884 282.897H390.116L390.715 269.63Z" fill="url(#paint17_linear_28_376)"/>
<path d="M446.065 115.616C445.658 124.237 442.592 132.52 437.289 139.329C433.363 144.472 428.311 148.647 422.521 151.534C416.731 154.421 410.356 155.943 403.887 155.983C398.658 156.023 393.477 154.992 388.662 152.953C383.848 150.915 379.501 147.913 375.891 144.131C372.28 140.349 369.482 135.868 367.669 130.964C365.856 126.06 365.066 120.837 365.348 115.616C365.902 104.783 370.574 94.5697 378.408 87.0664C386.242 79.563 396.647 75.336 407.495 75.2497C412.727 75.2009 417.914 76.2256 422.734 78.2604C427.555 80.2952 431.907 83.2968 435.522 87.08C439.137 90.8631 441.937 95.3473 443.751 100.256C445.564 105.164 446.352 110.392 446.065 115.616V115.616Z" fill="white"/>
<path d="M449.862 83.6951C449.759 85.9873 448.944 88.1904 447.53 89.9975C446.484 91.3634 445.139 92.4724 443.599 93.2397C442.059 94.007 440.364 94.4123 438.644 94.4249C436.977 94.435 435.333 94.0368 433.855 93.265C432.377 92.4932 431.111 91.3714 430.167 89.9975C428.917 88.1409 428.298 85.931 428.402 83.6951C428.555 80.8187 429.799 78.1088 431.88 76.1179C433.962 74.127 436.725 73.0052 439.605 72.9811C440.994 72.9685 442.372 73.2404 443.652 73.7803C444.933 74.3202 446.089 75.1166 447.05 76.1203C448.011 77.1241 448.756 78.314 449.24 79.6168C449.723 80.9195 449.935 82.3075 449.862 83.6951V83.6951Z" fill="url(#paint18_linear_28_376)"/>
<path d="M339.177 226.112C339.101 227.382 338.547 228.576 337.626 229.453C336.705 230.33 335.486 230.825 334.214 230.839C333.6 230.846 332.991 230.728 332.424 230.49C331.858 230.253 331.346 229.902 330.921 229.459C330.496 229.016 330.166 228.49 329.952 227.915C329.738 227.339 329.644 226.726 329.676 226.112C329.744 224.84 330.296 223.642 331.219 222.763C332.142 221.885 333.365 221.392 334.639 221.386C335.253 221.381 335.861 221.501 336.426 221.739C336.991 221.977 337.502 222.328 337.927 222.771C338.352 223.214 338.682 223.738 338.897 224.313C339.112 224.887 339.207 225.5 339.177 226.112V226.112Z" fill="#263238"/>
<path d="M360.416 226.112C360.344 227.383 359.791 228.579 358.869 229.457C357.947 230.335 356.726 230.829 355.453 230.839C354.84 230.844 354.233 230.724 353.668 230.486C353.104 230.247 352.594 229.896 352.17 229.453C351.747 229.01 351.418 228.485 351.205 227.911C350.992 227.336 350.899 226.724 350.931 226.112C350.999 224.843 351.549 223.647 352.468 222.769C353.387 221.89 354.607 221.396 355.878 221.386C356.492 221.378 357.102 221.497 357.668 221.734C358.234 221.972 358.746 222.323 359.171 222.766C359.597 223.209 359.926 223.734 360.141 224.31C360.355 224.886 360.448 225.499 360.416 226.112V226.112Z" fill="#263238"/>
<path d="M381.671 226.112C381.599 227.383 381.046 228.579 380.124 229.457C379.202 230.335 377.981 230.829 376.708 230.839C376.094 230.844 375.486 230.724 374.921 230.486C374.356 230.247 373.845 229.896 373.42 229.454C372.995 229.011 372.665 228.487 372.45 227.912C372.235 227.337 372.14 226.725 372.17 226.112C372.242 224.841 372.795 223.646 373.717 222.768C374.639 221.89 375.86 221.396 377.133 221.386C377.747 221.378 378.356 221.497 378.923 221.734C379.489 221.972 380.001 222.323 380.426 222.766C380.851 223.209 381.181 223.734 381.395 224.31C381.609 224.886 381.703 225.499 381.671 226.112V226.112Z" fill="#263238"/>
<path d="M335.6 306.057C335.525 307.327 334.971 308.521 334.05 309.398C333.128 310.275 331.909 310.771 330.637 310.784C330.024 310.789 329.416 310.669 328.851 310.431C328.285 310.193 327.775 309.841 327.35 309.399C326.925 308.956 326.595 308.432 326.38 307.857C326.165 307.283 326.07 306.67 326.1 306.057C326.172 304.787 326.725 303.591 327.647 302.713C328.568 301.835 329.79 301.341 331.063 301.331C331.676 301.326 332.284 301.446 332.85 301.684C333.415 301.922 333.926 302.274 334.35 302.716C334.775 303.159 335.105 303.683 335.32 304.258C335.535 304.832 335.63 305.445 335.6 306.057Z" fill="#263238"/>
<path d="M356.839 306.057C356.768 307.326 356.217 308.519 355.298 309.397C354.38 310.274 353.162 310.77 351.892 310.784C351.278 310.792 350.669 310.673 350.103 310.435C349.536 310.198 349.025 309.847 348.599 309.404C348.174 308.961 347.844 308.435 347.63 307.86C347.416 307.284 347.322 306.671 347.354 306.057C347.426 304.787 347.979 303.591 348.901 302.713C349.823 301.835 351.045 301.341 352.317 301.331C352.93 301.326 353.538 301.446 354.102 301.684C354.667 301.923 355.176 302.274 355.6 302.717C356.024 303.16 356.352 303.684 356.565 304.259C356.778 304.833 356.872 305.446 356.839 306.057V306.057Z" fill="#263238"/>
<path d="M378.141 306.058C378.069 307.329 377.516 308.524 376.594 309.402C375.672 310.28 374.451 310.774 373.178 310.784C372.565 310.787 371.958 310.665 371.394 310.426C370.83 310.187 370.32 309.836 369.896 309.394C369.471 308.952 369.141 308.428 368.925 307.855C368.71 307.281 368.613 306.67 368.64 306.058C368.716 304.788 369.27 303.594 370.191 302.717C371.112 301.84 372.332 301.345 373.603 301.331C374.218 301.324 374.827 301.442 375.393 301.68C375.959 301.917 376.471 302.268 376.896 302.711C377.322 303.154 377.652 303.68 377.866 304.255C378.08 304.831 378.174 305.444 378.141 306.058V306.058Z" fill="#263238"/>
<path d="M399.348 306.057C399.273 307.327 398.718 308.521 397.797 309.398C396.876 310.275 395.657 310.771 394.385 310.784C393.772 310.787 393.165 310.665 392.601 310.426C392.037 310.187 391.527 309.836 391.103 309.394C390.678 308.952 390.348 308.428 390.132 307.855C389.917 307.281 389.82 306.67 389.847 306.057C389.923 304.788 390.477 303.594 391.398 302.717C392.319 301.84 393.539 301.344 394.811 301.331C395.424 301.326 396.032 301.446 396.597 301.684C397.163 301.922 397.673 302.274 398.098 302.716C398.523 303.159 398.853 303.683 399.068 304.258C399.283 304.832 399.378 305.445 399.348 306.057V306.057Z" fill="#263238"/>
<path d="M420.682 306.057C420.606 307.327 420.052 308.521 419.131 309.398C418.21 310.275 416.991 310.771 415.719 310.784C415.105 310.792 414.496 310.673 413.929 310.435C413.363 310.198 412.851 309.847 412.426 309.404C412.001 308.961 411.671 308.435 411.457 307.86C411.242 307.284 411.149 306.671 411.181 306.057C411.253 304.787 411.806 303.591 412.728 302.713C413.65 301.835 414.871 301.341 416.144 301.331C416.758 301.326 417.366 301.446 417.931 301.684C418.496 301.922 419.007 302.274 419.432 302.716C419.857 303.159 420.187 303.683 420.402 304.258C420.617 304.832 420.712 305.445 420.682 306.057Z" fill="#263238"/>
<path d="M417.458 113.514C424.052 107.065 424.402 96.7282 418.239 90.4259C412.076 84.1236 401.734 84.2426 395.139 90.6915C388.545 97.1405 388.195 107.477 394.358 113.78C400.521 120.082 410.863 119.963 417.458 113.514Z" fill="url(#paint19_linear_28_376)"/>
<path d="M437.289 139.329C433.363 144.472 428.311 148.647 422.521 151.534C416.731 154.421 410.356 155.943 403.886 155.983C397.613 156.036 391.422 154.545 385.861 151.641C380.299 148.736 375.538 144.508 371.997 139.329C379.654 131.703 391.77 126.724 405.194 126.724C418.618 126.724 430.309 131.703 437.289 139.329Z" fill="url(#paint20_linear_28_376)"/>
<path opacity="0.1" d="M417.458 113.514C424.052 107.065 424.402 96.7282 418.239 90.4259C412.076 84.1236 401.734 84.2426 395.139 90.6915C388.545 97.1405 388.195 107.477 394.358 113.78C400.521 120.082 410.863 119.963 417.458 113.514Z" fill="white"/>
<path opacity="0.1" d="M437.289 139.329C433.363 144.472 428.311 148.647 422.521 151.534C416.731 154.421 410.356 155.943 403.886 155.983C397.613 156.036 391.422 154.545 385.861 151.641C380.299 148.736 375.538 144.508 371.997 139.329C379.654 131.703 391.77 126.724 405.194 126.724C418.618 126.724 430.309 131.703 437.289 139.329Z" fill="white"/>
<path d="M205.473 248.06C203.976 251.338 202.4 254.946 201.03 258.444C199.659 261.941 198.257 265.549 197.043 269.142C194.566 276.221 192.68 283.494 191.403 290.885L191.056 293.201C191.023 293.598 191.06 293.998 191.166 294.383C191.538 295.688 192.124 296.924 192.9 298.038C194.923 300.923 197.27 303.566 199.895 305.916C202.663 308.49 205.566 310.915 208.592 313.179C211.618 315.511 214.8 317.78 217.936 319.923L214.989 325.453C207.503 322.191 200.396 318.117 193.798 313.305C190.277 310.738 187.1 307.731 184.344 304.356C182.71 302.347 181.436 300.071 180.579 297.628C180.08 296.102 179.825 294.507 179.822 292.902C179.822 292.523 179.822 291.972 179.822 291.704V290.932L179.98 289.357C180.883 281.148 182.609 273.051 185.132 265.187C186.361 261.311 187.669 257.451 189.165 253.685C190.662 249.92 192.206 246.233 194.113 242.404L205.473 248.06Z" fill="#E58A7B"/>
<path d="M215.714 318.946L226.853 313.305L223.97 325.532C223.97 325.532 216.328 327.674 212.783 323.956L215.714 318.946Z" fill="#E58A7B"/>
<path d="M237.048 315.306L234.086 325.421L223.97 325.532L226.854 313.305L237.048 315.306Z" fill="#E58A7B"/>
<path d="M252.772 189.07C253.368 191.254 254.197 193.367 255.245 195.373C254.939 195.72 254.545 195.978 254.104 196.12C253.663 196.261 253.191 196.281 252.74 196.176L252.772 189.07Z" fill="#DF5753"/>
<path d="M252.441 189.165C253.094 189.165 253.623 188.353 253.623 187.353C253.623 186.352 253.094 185.541 252.441 185.541C251.788 185.541 251.259 186.352 251.259 187.353C251.259 188.353 251.788 189.165 252.441 189.165Z" fill="#263238"/>
<path d="M252.095 185.604L254.49 184.926C254.49 184.926 253.324 186.785 252.095 185.604Z" fill="#263238"/>
<path d="M222.001 200.635C223.435 207.961 224.868 221.401 219.732 226.301C219.732 226.301 221.749 233.738 235.377 233.738C250.361 233.738 242.531 226.301 242.531 226.301C234.353 224.348 234.558 218.282 235.992 212.578L222.001 200.635Z" fill="#E58A7B"/>
<path d="M218.014 183.934C218.771 196.176 218.834 201.375 225.01 207.662C234.322 217.115 249.195 213.523 252.11 201.36C254.741 190.331 253.071 172.18 241.081 167.311C238.449 166.227 235.584 165.832 232.757 166.164C229.93 166.496 227.234 167.543 224.925 169.207C222.615 170.872 220.769 173.097 219.56 175.674C218.35 178.251 217.818 181.094 218.014 183.934V183.934Z" fill="#E58A7B"/>
<path d="M219.228 170.163C213.083 172.401 204.89 170.73 208.104 189.685C211.507 209.758 206.276 216.359 206.276 216.359C206.276 216.359 229.579 221.323 253.371 216.06C253.371 216.06 246.107 203.361 248.14 194.002C250.739 182.185 248.691 177.821 248.691 177.821C248.691 177.821 227.862 167.012 219.228 170.163Z" fill="#263238"/>
<path d="M245.225 190.315C245.231 192.643 245.898 194.921 247.147 196.885C248.817 199.438 250.786 198.461 251.275 195.751C251.716 193.372 251.385 189.165 249.258 187.526C247.131 185.888 245.256 187.495 245.225 190.315Z" fill="#E58A7B"/>
<path d="M213.886 172.227C212.122 167.264 220.535 159.623 238.339 162.774C256.143 165.925 256.915 180.751 256.915 180.751L253.323 176.466L253.481 180.972L235.188 184.485L213.886 172.227Z" fill="#263238"/>
<path d="M215.399 227.136C215.294 226.417 215.474 225.685 215.901 225.096C216.327 224.508 216.967 224.109 217.684 223.985C223.23 223.071 235.834 221.212 242.168 222.095C246.895 222.756 248.124 225.498 248.329 227.751C248.361 228.145 248.308 228.542 248.174 228.915C248.04 229.287 247.828 229.627 247.552 229.91C247.275 230.194 246.942 230.415 246.573 230.559C246.204 230.703 245.809 230.766 245.414 230.745L218.03 229.516C217.385 229.483 216.77 229.228 216.291 228.795C215.811 228.361 215.496 227.776 215.399 227.136V227.136Z" fill="url(#paint21_linear_28_376)"/>
<path opacity="0.6" d="M215.399 227.136C215.294 226.417 215.474 225.685 215.901 225.096C216.327 224.508 216.967 224.109 217.684 223.985C223.23 223.071 235.834 221.212 242.168 222.095C246.895 222.756 248.124 225.498 248.329 227.751C248.361 228.145 248.308 228.542 248.174 228.915C248.04 229.287 247.828 229.627 247.552 229.91C247.275 230.194 246.942 230.415 246.573 230.559C246.204 230.703 245.809 230.766 245.414 230.745L218.03 229.516C217.385 229.483 216.77 229.228 216.291 228.795C215.811 228.361 215.496 227.776 215.399 227.136V227.136Z" fill="black"/>
<path d="M231.233 502.392L241.396 509.45L258.397 486.399L248.234 479.356L231.233 502.392Z" fill="#E58A7B"/>
<path d="M207.537 501.934L218.266 508.048L233.313 483.673L222.583 477.56L207.537 501.934Z" fill="#E58A7B"/>
<path d="M258.381 486.399L249.621 498.279L239.458 491.236L248.219 479.356L258.381 486.399Z" fill="#CF6F64"/>
<path d="M222.568 477.56L233.313 483.689L225.561 496.246L214.816 490.117L222.568 477.56Z" fill="#CF6F64"/>
<path d="M239.805 304.088C239.805 304.088 279.478 354.081 272.026 401.9C266.023 440.518 231.202 492.812 231.202 492.812L214.832 484.682C226.371 461.56 236.218 437.633 244.295 413.087C246.786 405.466 247.513 397.379 246.421 389.437C245.33 381.494 242.448 373.903 237.993 367.237C217.888 337.884 185.683 355.357 207.348 304.088H239.805Z" fill="url(#paint22_linear_28_376)"/>
<path opacity="0.6" d="M239.805 304.088C239.805 304.088 279.478 354.081 272.026 401.9C266.023 440.518 231.202 492.812 231.202 492.812L214.832 484.682C226.371 461.56 236.218 437.633 244.295 413.087C246.786 405.466 247.513 397.379 246.421 389.437C245.33 381.494 242.448 373.903 237.993 367.237C217.888 337.884 185.683 355.357 207.348 304.088H239.805Z" fill="black"/>
<path opacity="0.4" d="M259.263 336.199L253.497 330.464C253.497 330.921 264.667 399.884 267.803 419.264C269.653 413.603 271.07 407.809 272.041 401.932C275.728 378.472 268.023 354.507 259.263 336.199Z" fill="black"/>
<path d="M257.515 304.088C257.515 304.088 305.286 366.922 306.641 404.595C307.76 436.106 254.647 497.16 254.647 497.16L239.206 487.171C239.206 487.171 270.293 443.811 278.123 408.392C275.098 373.288 211.129 304.088 211.129 304.088H257.515Z" fill="url(#paint23_linear_28_376)"/>
<path opacity="0.6" d="M257.515 304.088C257.515 304.088 305.286 366.922 306.641 404.595C307.76 436.106 254.647 497.16 254.647 497.16L239.206 487.171C239.206 487.171 270.293 443.811 278.123 408.392C275.098 373.288 211.129 304.088 211.129 304.088H257.515Z" fill="black"/>
<path d="M198.414 229.106C193.309 230.319 188.409 248.88 188.409 248.88L208.372 262.209C208.372 262.209 215.021 247.525 212.689 241.096C210.278 234.4 204.827 227.578 198.414 229.106Z" fill="url(#paint24_linear_28_376)"/>
<path opacity="0.2" d="M202.322 241.064L200.935 257.246L208.356 262.225C210.405 257.611 211.922 252.78 212.878 247.824L202.322 241.064Z" fill="black"/>
<path d="M263.423 229.468C263.423 229.468 269.315 231.532 257.514 304.072H207.316C208.167 283.59 208.183 270.985 198.414 229.106C205.443 227.658 212.567 226.72 219.732 226.301C227.322 225.757 234.941 225.757 242.53 226.301C252.331 227.2 263.423 229.468 263.423 229.468Z" fill="url(#paint25_linear_28_376)"/>
<path d="M268.527 241.064C269.662 244.216 270.859 247.603 272.12 250.865C273.38 254.126 274.578 257.482 275.854 260.791L279.714 270.686L280.691 273.159L281.195 274.388L281.431 275.003C281.431 275.113 281.431 275.113 281.431 275.097C281.144 274.691 280.766 274.357 280.329 274.12C279.705 273.753 279.003 273.543 278.28 273.506C277.68 273.487 277.083 273.6 276.531 273.837C275.807 274.168 275.807 274.309 275.822 274.294C275.953 274.189 276.07 274.067 276.169 273.931C277.041 272.786 277.796 271.556 278.422 270.26C279.163 268.811 279.872 267.266 280.581 265.707C281.967 262.555 283.243 259.294 284.52 256.001C285.796 252.708 287.009 249.384 288.191 246.028L291.783 235.975L297.849 237.551C296.652 244.736 295.108 251.731 293.248 258.853C292.35 262.398 291.295 265.911 290.097 269.457C289.498 271.237 288.837 273.002 288.08 274.814C287.292 276.78 286.322 278.669 285.181 280.454C284.762 281.055 284.299 281.624 283.795 282.156C282.99 283.025 282.014 283.717 280.927 284.188C279.963 284.602 278.919 284.796 277.871 284.755C276.696 284.712 275.552 284.37 274.546 283.763C273.359 283.022 272.374 281.999 271.679 280.785C271.442 280.375 271.237 279.966 271.096 279.666L270.796 279.068L270.198 277.839L269 275.397C267.424 272.119 265.849 268.811 264.478 265.486C263.107 262.162 261.658 258.79 260.303 255.402C258.948 252.015 257.735 248.627 256.584 244.972L268.527 241.064Z" fill="#E58A7B"/>
<path d="M263.423 229.468C269.458 230.902 276.248 248.738 276.248 248.738L258.302 264.005C258.302 264.005 246.69 244.562 249.038 238.15C251.48 231.469 255.545 227.593 263.423 229.468Z" fill="url(#paint26_linear_28_376)"/>
<path d="M294.635 230.335L300.938 225.073L305.318 231.895L302.088 237.583C302.088 237.583 296.951 242.309 292.414 239.899C291.694 238.28 291.521 236.47 291.922 234.745C292.323 233.019 293.275 231.471 294.635 230.335V230.335Z" fill="#E58A7B"/>
<path d="M312.313 225.088L311.84 226.806L301.867 228.476L300.89 225.073L312.313 225.088Z" fill="#E58A7B"/>
<path d="M255.876 497.963L237.883 486.336L241.113 480.727L261.328 493.158L255.876 497.963Z" fill="url(#paint27_linear_28_376)"/>
<path d="M225.309 507.228C223.731 507.036 222.214 506.498 220.866 505.653C220.811 505.634 220.762 505.597 220.728 505.549C220.694 505.501 220.676 505.444 220.676 505.385C220.676 505.326 220.694 505.269 220.728 505.221C220.762 505.173 220.811 505.137 220.866 505.117C221.355 504.96 225.593 503.652 226.822 504.66C226.96 504.775 227.065 504.925 227.126 505.094C227.187 505.263 227.202 505.445 227.169 505.621C227.147 505.905 227.053 506.178 226.895 506.416C226.738 506.653 226.523 506.846 226.27 506.976C225.975 507.137 225.645 507.224 225.309 507.228V507.228ZM221.764 505.495C223.734 506.504 225.309 506.866 226.066 506.488C226.23 506.397 226.369 506.265 226.468 506.105C226.567 505.945 226.624 505.762 226.633 505.574C226.633 505.322 226.633 505.212 226.491 505.149C225.829 504.613 223.466 505.023 221.733 505.495H221.764Z" fill="#263238"/>
<path d="M220.977 505.763C220.893 505.762 220.814 505.728 220.756 505.668C220.732 505.625 220.72 505.576 220.72 505.526C220.72 505.477 220.732 505.428 220.756 505.385C220.756 505.243 221.78 501.824 223.387 501.052C223.592 500.958 223.815 500.91 224.041 500.91C224.267 500.91 224.49 500.958 224.695 501.052C224.916 501.122 225.108 501.263 225.239 501.455C225.37 501.646 225.434 501.876 225.42 502.107C225.309 503.525 222.426 505.479 221.103 505.81L220.977 505.763ZM224.033 501.461C223.88 501.466 223.729 501.504 223.592 501.572C222.615 502.044 221.812 503.888 221.418 505.006C222.804 504.423 224.711 502.879 224.774 502.013C224.774 501.871 224.774 501.698 224.411 501.54C224.293 501.477 224.166 501.434 224.033 501.414V501.461Z" fill="#263238"/>
<path d="M247.793 514.035C246.013 514.035 243.539 511.75 242.184 510.348C242.149 510.3 242.131 510.242 242.131 510.182C242.131 510.123 242.149 510.065 242.184 510.017C242.215 509.966 242.259 509.925 242.312 509.897C242.365 509.869 242.424 509.856 242.483 509.859C243.114 509.859 248.581 510.679 249.353 512.223C249.435 512.361 249.478 512.519 249.478 512.68C249.478 512.84 249.435 512.998 249.353 513.137C249.237 513.377 249.062 513.584 248.845 513.738C248.627 513.893 248.374 513.989 248.108 514.019L247.793 514.035ZM243.224 510.568C245.209 512.491 246.958 513.562 247.951 513.436C248.125 513.413 248.29 513.348 248.433 513.247C248.576 513.145 248.692 513.01 248.77 512.853C248.805 512.799 248.824 512.736 248.824 512.672C248.824 512.607 248.805 512.544 248.77 512.491C248.36 511.64 245.446 510.915 243.224 510.568Z" fill="#263238"/>
<path d="M243.397 510.49C243.043 510.5 242.69 510.474 242.341 510.411C242.293 510.404 242.247 510.384 242.208 510.354C242.169 510.323 242.139 510.283 242.121 510.238C242.097 510.191 242.085 510.14 242.085 510.088C242.085 510.036 242.097 509.985 242.121 509.938C242.215 509.828 244.342 507.26 246.359 507.087C246.93 507.042 247.496 507.223 247.935 507.591C248.549 508.127 248.518 508.599 248.36 508.899C247.966 509.97 245.24 510.49 243.397 510.49ZM242.987 509.907C244.752 510.002 247.572 509.419 247.935 508.646C247.935 508.646 248.061 508.394 247.651 508.048C247.488 507.906 247.298 507.799 247.092 507.734C246.886 507.669 246.668 507.647 246.454 507.67C245.095 508.049 243.885 508.835 242.987 509.923V509.907Z" fill="#263238"/>
<path d="M221.402 504.062L208.041 500.28C207.811 500.21 207.563 500.228 207.345 500.33C207.127 500.432 206.954 500.61 206.859 500.832L202.353 510.963C202.247 511.222 202.198 511.501 202.207 511.781C202.217 512.061 202.286 512.336 202.409 512.588C202.533 512.839 202.708 513.062 202.924 513.24C203.14 513.419 203.391 513.551 203.661 513.625C208.388 514.854 210.656 515.201 216.533 516.887C220.157 517.895 225.325 519.77 230.32 521.188C235.314 522.606 236.984 517.738 235.046 516.698C226.286 512.066 225.593 508.82 223.198 505.354C222.769 504.726 222.133 504.269 221.402 504.062V504.062Z" fill="url(#paint28_linear_28_376)"/>
<path d="M242.546 508.505L231.139 500.627C230.946 500.486 230.707 500.421 230.469 500.444C230.231 500.467 230.01 500.577 229.847 500.753L222.284 508.883C222.1 509.093 221.962 509.34 221.881 509.607C221.799 509.875 221.776 510.156 221.812 510.433C221.847 510.711 221.942 510.977 222.088 511.215C222.235 511.453 222.431 511.657 222.662 511.813C226.68 514.508 228.76 515.595 233.786 519.077C236.937 521.22 243.035 525.978 247.289 528.94C251.543 531.902 254.71 527.837 253.197 526.23C246.422 518.998 244.941 514.46 243.822 510.348C243.628 509.602 243.176 508.949 242.546 508.505Z" fill="url(#paint29_linear_28_376)"/>
<path d="M233.298 493.851L212.736 483.626L214.863 478.048L236.827 488.825L233.298 493.851Z" fill="url(#paint30_linear_28_376)"/>
<path d="M206.56 301.126L204.827 305.664C204.653 306.01 205.063 306.373 205.646 306.373H257.766C258.223 306.373 258.601 306.152 258.633 305.869L259.074 301.362C259.074 301.063 258.712 300.795 258.223 300.795H207.379C207.226 300.781 207.072 300.803 206.929 300.861C206.787 300.919 206.66 301.009 206.56 301.126V301.126Z" fill="url(#paint31_linear_28_376)"/>
<path opacity="0.4" d="M206.56 301.126L204.827 305.664C204.653 306.01 205.063 306.373 205.646 306.373H257.766C258.223 306.373 258.601 306.152 258.633 305.869L259.074 301.362C259.074 301.063 258.712 300.795 258.223 300.795H207.379C207.226 300.781 207.072 300.803 206.929 300.861C206.787 300.919 206.66 301.009 206.56 301.126V301.126Z" fill="white"/>
<path d="M214.768 306.814H213.398C213.13 306.814 212.925 306.672 212.941 306.499L213.587 300.653C213.587 300.496 213.839 300.354 214.107 300.354H215.477C215.745 300.354 215.95 300.496 215.934 300.653L215.288 306.499C215.273 306.672 215.036 306.814 214.768 306.814Z" fill="url(#paint32_linear_28_376)"/>
<path d="M246.91 306.814H245.555C245.288 306.814 245.083 306.672 245.099 306.499L245.729 300.653C245.729 300.496 245.997 300.354 246.264 300.354H247.619C247.887 300.354 248.108 300.496 248.076 300.653L247.446 306.499C247.367 306.672 247.194 306.814 246.91 306.814Z" fill="url(#paint33_linear_28_376)"/>
<g style="mix-blend-mode:multiply">
<path d="M213.571 573.64C236.883 573.64 255.781 572.271 255.781 570.583C255.781 568.895 236.883 567.526 213.571 567.526C190.259 567.526 171.361 568.895 171.361 570.583C171.361 572.271 190.259 573.64 213.571 573.64Z" fill="#F5F5F5"/>
</g>
<path d="M239.284 566.265C231.816 564.091 223.529 561.302 218.518 558.388C218.376 558.293 218.219 558.246 218.077 558.167V524.355H233.187C234.334 524.287 235.412 523.783 236.2 522.947C236.988 522.111 237.427 521.006 237.427 519.857C237.427 518.708 236.988 517.602 236.2 516.766C235.412 515.93 234.334 515.426 233.187 515.358H218.156V361.234H209.08V515.358H194.065C193.452 515.322 192.838 515.411 192.261 515.621C191.683 515.831 191.155 516.156 190.708 516.577C190.261 516.999 189.905 517.507 189.662 518.071C189.418 518.635 189.293 519.242 189.293 519.857C189.293 520.471 189.418 521.078 189.662 521.642C189.905 522.206 190.261 522.714 190.708 523.136C191.155 523.557 191.683 523.882 192.261 524.092C192.838 524.302 193.452 524.391 194.065 524.355H209.08V558.12C208.939 558.12 208.797 558.246 208.655 558.34C203.566 561.302 195.341 564.091 187.873 566.218C187.369 566.371 186.935 566.699 186.652 567.143C186.368 567.588 186.253 568.119 186.328 568.64C186.402 569.162 186.661 569.64 187.057 569.988C187.453 570.335 187.961 570.53 188.488 570.535H238.67C239.174 570.501 239.65 570.295 240.02 569.952C240.39 569.608 240.631 569.148 240.703 568.649C240.775 568.149 240.674 567.64 240.415 567.206C240.157 566.772 239.758 566.44 239.284 566.265Z" fill="#E0E0E0"/>
<path d="M241.601 345.542H185.573C181.066 345.542 177.412 349.196 177.412 353.703V370.357C177.412 374.864 181.066 378.519 185.573 378.519H241.601C246.109 378.519 249.763 374.864 249.763 370.357V353.703C249.763 349.196 246.109 345.542 241.601 345.542Z" fill="url(#paint34_linear_28_376)"/>
<path d="M185.053 378.534V381.402C185.053 383.765 187.621 385.687 190.773 385.687H236.465C239.616 385.687 242.184 383.765 242.184 381.402V378.534H185.053Z" fill="url(#paint35_linear_28_376)"/>
<path opacity="0.3" d="M185.053 378.534V381.402C185.053 383.765 187.621 385.687 190.773 385.687H236.465C239.616 385.687 242.184 383.765 242.184 381.402V378.534H185.053Z" fill="white"/>
<defs>
<linearGradient id="paint0_linear_28_376" x1="538.479" y1="153.581" x2="538.479" y2="194.696" gradientUnits="userSpaceOnUse">
<stop stop-color="#00C9DD"/>
<stop offset="1" stop-color="#0071E5"/>
</linearGradient>
<linearGradient id="paint1_linear_28_376" x1="569.885" y1="150.504" x2="569.885" y2="256.726" gradientUnits="userSpaceOnUse">
<stop stop-color="#00C9DD"/>
<stop offset="1" stop-color="#0071E5"/>
</linearGradient>
<linearGradient id="paint2_linear_28_376" x1="550.763" y1="256.726" x2="550.763" y2="543.246" gradientUnits="userSpaceOnUse">
<stop stop-color="#00C9DD"/>
<stop offset="1" stop-color="#0071E5"/>
</linearGradient>
<linearGradient id="paint3_linear_28_376" x1="567.054" y1="529.129" x2="567.054" y2="544.318" gradientUnits="userSpaceOnUse">
<stop stop-color="#00C9DD"/>
<stop offset="1" stop-color="#0071E5"/>
</linearGradient>
<linearGradient id="paint4_linear_28_376" x1="589.475" y1="256.726" x2="589.475" y2="542.427" gradientUnits="userSpaceOnUse">
<stop stop-color="#00C9DD"/>
<stop offset="1" stop-color="#0071E5"/>
</linearGradient>
<linearGradient id="paint5_linear_28_376" x1="609.941" y1="535.873" x2="609.941" y2="542.837" gradientUnits="userSpaceOnUse">
<stop stop-color="#00C9DD"/>
<stop offset="1" stop-color="#0071E5"/>
</linearGradient>
<linearGradient id="paint6_linear_28_376" x1="602.911" y1="556.17" x2="602.911" y2="559.187" gradientUnits="userSpaceOnUse">
<stop stop-color="#00C9DD"/>
<stop offset="1" stop-color="#0071E5"/>
</linearGradient>
<linearGradient id="paint7_linear_28_376" x1="604.207" y1="553.412" x2="604.207" y2="558.771" gradientUnits="userSpaceOnUse">
<stop stop-color="#00C9DD"/>
<stop offset="1" stop-color="#0071E5"/>
</linearGradient>
<linearGradient id="paint8_linear_28_376" x1="560.788" y1="554.678" x2="560.788" y2="557.459" gradientUnits="userSpaceOnUse">
<stop stop-color="#00C9DD"/>
<stop offset="1" stop-color="#0071E5"/>
</linearGradient>
<linearGradient id="paint9_linear_28_376" x1="561.944" y1="551.355" x2="561.944" y2="555.931" gradientUnits="userSpaceOnUse">
<stop stop-color="#00C9DD"/>
<stop offset="1" stop-color="#0071E5"/>
</linearGradient>
<linearGradient id="paint10_linear_28_376" x1="600.676" y1="153.346" x2="600.676" y2="197.642" gradientUnits="userSpaceOnUse">
<stop stop-color="#00C9DD"/>
<stop offset="1" stop-color="#0071E5"/>
</linearGradient>
<linearGradient id="paint11_linear_28_376" x1="380.796" y1="24.5317" x2="380.796" y2="26.1546" gradientUnits="userSpaceOnUse">
<stop stop-color="#00C9DD"/>
<stop offset="1" stop-color="#0071E5"/>
</linearGradient>
<linearGradient id="paint12_linear_28_376" x1="515.55" y1="102.283" x2="517.171" y2="102.356" gradientUnits="userSpaceOnUse">
<stop stop-color="#00C9DD"/>
<stop offset="1" stop-color="#0071E5"/>
</linearGradient>
<linearGradient id="paint13_linear_28_376" x1="411.418" y1="31.811" x2="411.418" y2="418.964" gradientUnits="userSpaceOnUse">
<stop stop-color="#00C9DD"/>
<stop offset="1" stop-color="#0071E5"/>
</linearGradient>
<linearGradient id="paint14_linear_28_376" x1="400.318" y1="42.446" x2="400.318" y2="429.599" gradientUnits="userSpaceOnUse">
<stop stop-color="#00C9DD"/>
<stop offset="1" stop-color="#0071E5"/>
</linearGradient>
<linearGradient id="paint15_linear_28_376" x1="365.907" y1="189.685" x2="365.907" y2="202.935" gradientUnits="userSpaceOnUse">
<stop stop-color="#00C9DD"/>
<stop offset="1" stop-color="#0071E5"/>
</linearGradient>
<linearGradient id="paint16_linear_28_376" x1="393.944" y1="360.872" x2="393.944" y2="396.37" gradientUnits="userSpaceOnUse">
<stop stop-color="#00C9DD"/>
<stop offset="1" stop-color="#0071E5"/>
</linearGradient>
<linearGradient id="paint17_linear_28_376" x1="354.799" y1="269.63" x2="354.799" y2="282.897" gradientUnits="userSpaceOnUse">
<stop stop-color="#00C9DD"/>
<stop offset="1" stop-color="#0071E5"/>
</linearGradient>
<linearGradient id="paint18_linear_28_376" x1="439.134" y1="72.9807" x2="439.134" y2="94.4251" gradientUnits="userSpaceOnUse">
<stop stop-color="#00C9DD"/>
<stop offset="1" stop-color="#0071E5"/>
</linearGradient>
<linearGradient id="paint19_linear_28_376" x1="395.139" y1="90.6915" x2="417.458" y2="113.514" gradientUnits="userSpaceOnUse">
<stop stop-color="#00C9DD"/>
<stop offset="1" stop-color="#0071E5"/>
</linearGradient>
<linearGradient id="paint20_linear_28_376" x1="404.643" y1="126.724" x2="404.643" y2="155.984" gradientUnits="userSpaceOnUse">
<stop stop-color="#00C9DD"/>
<stop offset="1" stop-color="#0071E5"/>
</linearGradient>
<linearGradient id="paint21_linear_28_376" x1="231.854" y1="221.863" x2="231.854" y2="230.749" gradientUnits="userSpaceOnUse">
<stop stop-color="#00C9DD"/>
<stop offset="1" stop-color="#0071E5"/>
</linearGradient>
<linearGradient id="paint22_linear_28_376" x1="236.55" y1="304.088" x2="236.55" y2="492.812" gradientUnits="userSpaceOnUse">
<stop stop-color="#00C9DD"/>
<stop offset="1" stop-color="#0071E5"/>
</linearGradient>
<linearGradient id="paint23_linear_28_376" x1="258.894" y1="304.088" x2="258.894" y2="497.16" gradientUnits="userSpaceOnUse">
<stop stop-color="#00C9DD"/>
<stop offset="1" stop-color="#0071E5"/>
</linearGradient>
<linearGradient id="paint24_linear_28_376" x1="200.797" y1="228.889" x2="200.797" y2="262.209" gradientUnits="userSpaceOnUse">
<stop stop-color="#00C9DD"/>
<stop offset="1" stop-color="#0071E5"/>
</linearGradient>
<linearGradient id="paint25_linear_28_376" x1="231.654" y1="225.893" x2="231.654" y2="304.072" gradientUnits="userSpaceOnUse">
<stop stop-color="#00C9DD"/>
<stop offset="1" stop-color="#0071E5"/>
</linearGradient>
<linearGradient id="paint26_linear_28_376" x1="262.486" y1="228.996" x2="262.486" y2="264.005" gradientUnits="userSpaceOnUse">
<stop stop-color="#00C9DD"/>
<stop offset="1" stop-color="#0071E5"/>
</linearGradient>
<linearGradient id="paint27_linear_28_376" x1="249.605" y1="480.727" x2="249.605" y2="497.963" gradientUnits="userSpaceOnUse">
<stop stop-color="#00C9DD"/>
<stop offset="1" stop-color="#0071E5"/>
</linearGradient>
<linearGradient id="paint28_linear_28_376" x1="219.019" y1="500.238" x2="219.019" y2="521.445" gradientUnits="userSpaceOnUse">
<stop stop-color="#00C9DD"/>
<stop offset="1" stop-color="#0071E5"/>
</linearGradient>
<linearGradient id="paint29_linear_28_376" x1="237.688" y1="500.439" x2="237.688" y2="529.992" gradientUnits="userSpaceOnUse">
<stop stop-color="#00C9DD"/>
<stop offset="1" stop-color="#0071E5"/>
</linearGradient>
<linearGradient id="paint30_linear_28_376" x1="224.782" y1="478.048" x2="224.782" y2="493.851" gradientUnits="userSpaceOnUse">
<stop stop-color="#00C9DD"/>
<stop offset="1" stop-color="#0071E5"/>
</linearGradient>
<linearGradient id="paint31_linear_28_376" x1="231.93" y1="300.791" x2="231.93" y2="306.373" gradientUnits="userSpaceOnUse">
<stop stop-color="#00C9DD"/>
<stop offset="1" stop-color="#0071E5"/>
</linearGradient>
<linearGradient id="paint32_linear_28_376" x1="214.438" y1="300.354" x2="214.438" y2="306.814" gradientUnits="userSpaceOnUse">
<stop stop-color="#00C9DD"/>
<stop offset="1" stop-color="#0071E5"/>
</linearGradient>
<linearGradient id="paint33_linear_28_376" x1="246.589" y1="300.354" x2="246.589" y2="306.814" gradientUnits="userSpaceOnUse">
<stop stop-color="#00C9DD"/>
<stop offset="1" stop-color="#0071E5"/>
</linearGradient>
<linearGradient id="paint34_linear_28_376" x1="213.587" y1="345.542" x2="213.587" y2="378.519" gradientUnits="userSpaceOnUse">
<stop stop-color="#00C9DD"/>
<stop offset="1" stop-color="#0071E5"/>
</linearGradient>
<linearGradient id="paint35_linear_28_376" x1="213.619" y1="378.534" x2="213.619" y2="385.687" gradientUnits="userSpaceOnUse">
<stop stop-color="#00C9DD"/>
<stop offset="1" stop-color="#0071E5"/>
</linearGradient>
</defs>
</svg>
